<svg width="24" height="27" viewBox="0 0 24 27" fill="none" xmlns="http://www.w3.org/2000/svg">
<path d="M10.4084 27L13.6551 27C14.1082 27 14.5313 26.8229 14.7673 26.5352L23.8146 15.4381C24.043 15.1559 24.0617 14.8073 23.8633 14.5112L22.5152 12.533C22.2942 12.2093 21.8448 12.0046 21.358 12.0046L18.0963 12.0046L18.0963 3.43622C18.0963 3.15401 17.9428 2.88288 17.6732 2.68368L14.4564 0.309874C14.1868 0.110674 13.8198 -4.44989e-07 13.4379 -4.61685e-07L10.5657 -5.87234e-07C10.1874 -6.03767e-07 9.82044 0.110674 9.55081 0.309874L6.31161 2.68368C6.03824 2.88288 5.88471 3.15402 5.88471 3.43898L5.88471 12.0074L2.66047 12.0074C2.17365 12.0074 1.72804 12.2093 1.5071 12.5275L0.144 14.4863C-0.0619609 14.7824 -0.0469825 15.1365 0.188936 15.4215L9.29992 26.538C9.53584 26.8257 9.95525 27 10.4084 27ZM4.54408 14.9871L8.89923 14.9871L9.9927 14.9871L9.9927 2.98248L13.9846 2.98248L13.9846 14.9871L14.8459 14.9871L19.5231 14.9871L12.0336 24.1254L4.54408 14.9871Z" fill="#FF4F2A"/>
</svg>
