<svg width="33" height="33" viewBox="0 0 33 33" fill="none" xmlns="http://www.w3.org/2000/svg">
<path d="M0 3.56535V28.6985C0 29.1013 0.159481 29.4851 0.443304 29.769L2.48683 31.8125C2.77065 32.0963 3.15719 32.2558 3.55724 32.2558H8.7931V29.3229H2.93283V2.93284H8.7958V0H3.55995C3.15719 0 2.77335 0.159481 2.48953 0.443304L0.446007 2.48683C0.162184 2.77065 0.00270307 3.15719 0.00270307 3.55725L0 3.56535Z" fill="#FF4F2A"/>
<path d="M32.2531 28.6985V3.5653C32.2531 3.16254 32.0936 2.77871 31.8098 2.49488L29.7662 0.451361C29.4824 0.167538 29.0959 0.00805664 28.6958 0.00805664H23.46V2.94089H29.3229V29.331H23.46V32.2638H28.6958C29.0986 32.2638 29.4824 32.1044 29.7662 31.8205L31.8098 29.777C32.0936 29.4932 32.2531 29.1066 32.2531 28.7066V28.6985Z" fill="#FF4F2A"/>
<path d="M16.1264 5.86816C10.458 5.86816 5.86279 10.4634 5.86279 16.1317C5.86279 21.8001 10.458 26.3953 16.1264 26.3953C21.7947 26.3953 26.3899 21.8001 26.3899 16.1317C26.3899 10.4634 21.7947 5.86816 16.1264 5.86816ZM23.4733 16.1317C23.4733 20.189 20.1837 23.4787 16.1264 23.4787C12.0691 23.4787 8.77941 20.189 8.77941 16.1317C8.77941 12.0744 12.0691 8.78478 16.1264 8.78478C20.1837 8.78478 23.4733 12.0744 23.4733 16.1317Z" fill="#FF4F2A"/>
<path d="M16.1264 11.7339C13.6964 11.7339 11.7285 13.7017 11.7285 16.1318C11.7285 18.5618 13.6964 20.5297 16.1264 20.5297C18.5565 20.5297 20.5243 18.5618 20.5243 16.1318C20.5243 13.7017 18.5565 11.7339 16.1264 11.7339ZM17.5915 16.1318C17.5915 16.9427 16.9346 17.5969 16.1264 17.5969C15.3155 17.5969 14.6614 16.94 14.6614 16.1318C14.6614 15.3209 15.3182 14.6667 16.1264 14.6667C16.9373 14.6667 17.5915 15.3236 17.5915 16.1318Z" fill="#FF4F2A"/>
</svg>
