<svg width="143" height="68" viewBox="0 0 143 68" fill="none" xmlns="http://www.w3.org/2000/svg">
<path d="M101.508 24.0239H97.022V27.7942H101.508V24.0239Z" fill="#FFF9EB"/>
<path d="M9.69965 20.4306C15.4942 20.4306 18.1102 16.4455 18.6663 14.1909L14.3504 13.1867C13.9334 15.1635 12.3473 17.0076 9.86394 17.0076C7.63334 17.0076 5.18157 15.5424 5.18157 10.2248C5.18157 5.66498 7.15941 3.41669 9.7502 3.41669C12.341 3.41669 13.51 5.31763 14.0408 7.0228L18.4957 6.26494C17.5794 3.2272 15.0708 0 9.85762 0C3.95569 0 0 4.23136 0 10.4142C0 17.0581 4.40434 20.4243 9.69333 20.4243L9.69965 20.4306Z" fill="#FFF9EB"/>
<path d="M27.5065 20.3739C32.271 20.3739 35.3041 16.9573 35.3041 12.9975C35.3041 9.03766 32.2647 5.5957 27.5065 5.5957C22.7483 5.5957 19.6772 8.98713 19.6772 12.9975C19.6772 17.0078 22.742 20.3739 27.5065 20.3739ZM27.5065 8.49452C29.3453 8.49452 30.6281 9.85235 30.6281 12.9975C30.6281 16.1426 29.3453 17.4751 27.5065 17.4751C25.6676 17.4751 24.3596 16.1173 24.3596 12.9975C24.3596 9.87762 25.6424 8.49452 27.5065 8.49452Z" fill="#FFF9EB"/>
<path d="M37.2002 19.9129H41.7372C41.7372 19.9129 41.712 17.4183 41.712 17.3867V3.03791L41.7372 0.511719H37.2002L37.2255 3.03791V17.3867L37.2002 19.9129Z" fill="#FFF9EB"/>
<path d="M44.3089 15.467C44.3089 18.751 46.0909 20.3236 48.9028 20.3236C51.045 20.3236 52.8332 19.4015 54.1666 17.7974H54.2234V19.9131H58.5709L58.5456 17.3869V8.57048L58.5709 6.01904H54.0275L54.0528 8.57048V15.0817C53.244 16.1933 51.9928 16.9006 50.7101 16.9006C49.4273 16.9006 48.7891 16.2501 48.7891 14.5702V8.5768L48.8144 6.02536H44.2773L44.3026 8.5768V15.467H44.3089Z" fill="#FFF9EB"/>
<path d="M61.25 19.9134H65.7934L65.7681 17.3872V10.876C66.4948 9.71394 67.55 8.89292 68.6369 8.89292C69.9702 8.89292 70.6147 9.68236 70.6147 11.3875V17.3809L70.5895 19.9071H75.1265L75.1012 17.3809V10.8697C75.8279 9.70761 76.9148 8.88659 78.0269 8.88659C79.3097 8.88659 80.0048 9.67604 80.0048 11.3812V17.3746L79.9795 19.9008H84.4912L84.466 17.3746V10.4591C84.466 7.14983 82.7093 5.60254 79.8973 5.60254C77.8373 5.60254 76.1375 6.58146 74.8548 8.15402H74.7979C74.185 6.2278 72.4852 5.60254 70.5389 5.60254C68.5927 5.60254 66.9181 6.54987 65.667 8.09716H65.6101V6.00674H61.2626L61.2879 8.53293V17.3746L61.2626 19.9008L61.25 19.9134Z" fill="#FFF9EB"/>
<path d="M95.9666 5.62052C94.2984 5.62052 92.8766 6.16363 91.676 7.4962H91.6192V3.05012L91.6444 0.523926H87.1011L87.1264 3.05012V17.4241C87.1264 17.6704 87.1011 19.6725 87.1011 19.9188H90.3301L90.7219 18.0178H90.7787C91.3664 18.883 92.7566 20.3229 95.6001 20.3229C99.2462 20.3229 102.172 17.9357 102.172 12.9465C102.172 8.30458 99.6632 5.62052 95.9603 5.62052H95.9666ZM94.5701 17.4746C92.845 17.4746 91.6192 16.3063 91.6192 14.3801V10.635C92.0362 9.46664 93.0093 8.49405 94.5701 8.49405C96.6617 8.49405 97.4958 10.1992 97.4958 12.997C97.4958 15.5737 96.7691 17.4746 94.5701 17.4746Z" fill="#FFF9EB"/>
<path d="M104.219 19.9131H108.763L108.731 17.3932V8.55158L108.763 6.02539H104.219L104.251 8.55158V17.3932L104.219 19.9131Z" fill="#FFF9EB"/>
<path d="M108.737 0.518066H104.251V4.28843H108.737V0.518066Z" fill="#FFF9EB"/>
<path d="M110.45 16.3315C110.45 18.744 112.371 20.3228 115.492 20.3228C118.051 20.3228 119.473 19.3187 120.421 18.2324H120.478C120.535 18.7503 120.585 19.3187 120.699 19.9124H124.851C124.743 19.205 124.598 18.1503 124.598 16.9567V10.8244C124.598 6.9151 121.811 5.58887 118.026 5.58887C114.766 5.58887 112.232 6.56777 111.145 9.06238L114.797 9.98441C115.574 8.84763 116.301 8.27294 117.748 8.27294C119.473 8.27294 120.314 9.08762 120.314 10.6602V11.2538C115.328 11.2538 110.456 12.5043 110.456 16.3252L110.45 16.3315ZM120.314 14.3547C120.314 16.4957 118.475 17.5567 116.996 17.5567C115.77 17.5567 115.05 16.9314 115.05 15.902C115.05 14.0326 117.919 13.4074 120.314 13.3821V14.3547Z" fill="#FFF9EB"/>
<path d="M2.28804 39.9705C1.7067 39.9705 1.14431 39.9199 0.449219 39.781V43.4692C1.11903 43.7408 2.45234 43.905 3.43178 43.905C6.7998 43.905 9.83923 42.5472 9.83923 38.019V26.569C9.83923 26.0827 9.86451 24.5102 9.86451 24.0176H5.01785C5.01785 24.5039 5.04312 26.0511 5.04312 26.569V36.0928C5.04312 38.9663 4.54392 39.9705 2.28804 39.9705Z" fill="#FFF9EB"/>
<path d="M19.7848 29.0952C15.0203 29.0952 11.9556 32.4866 11.9556 36.497C11.9556 40.5073 15.0203 43.8734 19.7848 43.8734C24.5493 43.8734 27.5824 40.4568 27.5824 36.497C27.5824 32.5372 24.543 29.0952 19.7848 29.0952ZM19.7848 40.9746C17.9207 40.9746 16.6379 39.6168 16.6379 36.497C16.6379 33.3771 17.9207 31.994 19.7848 31.994C21.6489 31.994 22.9064 33.3519 22.9064 36.497C22.9064 39.6421 21.6236 40.9746 19.7848 40.9746Z" fill="#FFF9EB"/>
<path d="M33.8702 38.0766V32.0832L33.8954 29.5317H29.3584L29.3837 32.0832V38.9734C29.3837 42.2574 31.1656 43.83 33.9776 43.83C36.1197 43.83 37.908 42.9079 39.2413 41.3038H39.2982V43.4194H43.6456L43.6204 40.8932V32.0769L43.6456 29.5254H39.1023L39.1276 32.0769V38.5881C38.3187 39.6996 37.0676 40.407 35.7848 40.407C34.5021 40.407 33.8638 39.7565 33.8638 38.0766H33.8702Z" fill="#FFF9EB"/>
<path d="M55.8537 29.177C55.6831 29.1517 55.4936 29.1201 55.2408 29.1201C53.3767 29.1201 51.5379 30.3138 50.4763 33.0547H50.4194V29.5306H46.3247L46.35 32.0568V40.8985L46.3247 43.4247H50.8617L50.8365 40.8985V37.5892C51.0576 35.3093 52.5363 32.9789 54.8174 32.9789C55.1523 32.9789 55.5125 33.0294 55.8474 33.1115V29.177H55.8537Z" fill="#FFF9EB"/>
<path d="M66.8488 43.4184H71.3859L71.3606 40.8922V33.9767C71.3606 30.6674 69.5786 29.1201 66.7667 29.1201C64.6245 29.1201 62.8363 30.0738 61.503 31.6716H61.4461V29.5306H57.0986L57.1239 32.0568V40.8985L57.0986 43.4247H61.6357L61.6104 40.8985V34.362C62.4192 33.1936 63.6704 32.4105 64.9215 32.4105C66.1727 32.4105 66.8741 33.2252 66.8741 34.9051V40.8985L66.8488 43.4247V43.4184Z" fill="#FFF9EB"/>
<path d="M80.5989 29.0952C77.3383 29.0952 74.8044 30.0741 73.7176 32.5687L77.3636 33.4908C78.1408 32.354 78.8675 31.7793 80.3146 31.7793C82.0397 31.7793 82.8801 32.594 82.8801 34.1665V34.7602C77.8944 34.7602 73.0225 36.0106 73.0225 39.8315C73.0225 42.244 74.9434 43.8229 78.065 43.8229C80.6242 43.8229 82.046 42.8187 82.9938 41.7325H83.0507C83.1076 42.2503 83.1581 42.8187 83.2719 43.4124H87.4234C87.316 42.705 87.1707 41.6503 87.1707 40.4567V34.3244C87.1707 30.4151 84.384 29.0889 80.5989 29.0889V29.0952ZM82.8864 37.8547C82.8864 39.9957 81.0476 41.0567 79.5689 41.0567C78.343 41.0567 77.6227 40.4315 77.6227 39.402C77.6227 37.5327 80.4915 36.9074 82.8864 36.8822V37.8547Z" fill="#FFF9EB"/>
<path d="M89.7866 43.4187H94.3237C94.3237 43.4187 94.2984 40.9241 94.2984 40.8925V26.5438L94.3237 24.0176H89.7866L89.8119 26.5438V40.8925L89.7866 43.4187Z" fill="#FFF9EB"/>
<path d="M101.534 29.5317H96.9966L97.0219 32.0516V40.8933L96.9966 43.4195H101.534L101.508 40.8933V32.0516L101.534 29.5317Z" fill="#FFF9EB"/>
<path d="M111.493 34.7917C109.572 34.4949 107.733 34.4381 107.733 33.2192C107.733 32.3792 108.624 31.9182 110.128 31.9182C112.27 31.9182 113.692 32.8402 114.696 33.5475L116.478 31.0214C115.088 29.9351 112.523 28.9878 109.906 28.9878C105.786 28.9878 103.638 31.3182 103.638 33.8696C103.638 36.7179 106.336 37.5579 108.959 37.9684C110.993 38.2905 112.996 38.3473 112.996 39.6799C112.996 40.6525 111.966 41.0377 110.38 41.0377C107.929 41.0377 106.45 40.1156 105.06 39.1936L103.278 41.7135C104.725 42.9071 107.234 43.9681 110.355 43.9681C114.949 43.9681 117.097 41.6629 117.097 39.0862C117.097 36.0738 114.203 35.2085 111.499 34.798L111.493 34.7917Z" fill="#FFF9EB"/>
<path d="M142.089 33.9767C142.089 30.6674 140.332 29.1201 137.52 29.1201C135.46 29.1201 133.76 30.099 132.477 31.6716H132.421C131.808 29.7454 130.108 29.1201 128.162 29.1201C126.215 29.1201 124.541 30.0738 123.29 31.6147H123.233V29.5243H118.885L118.911 32.0505V40.8922L118.885 43.4184H123.422L123.397 40.8922V34.3809C124.124 33.2189 125.179 32.3979 126.266 32.3979C127.605 32.3979 128.244 33.1873 128.244 34.8925V40.8858L128.218 43.412H132.755L132.73 40.8858V34.3746C133.457 33.2125 134.544 32.3916 135.656 32.3916C136.939 32.3916 137.634 33.181 137.634 34.8861V40.8796L137.608 43.4058H142.12L142.095 40.8796V33.9641L142.089 33.9767Z" fill="#FFF9EB"/>
<path d="M17.213 53.3278C17.213 48.4965 13.0614 47.5239 9.63651 47.5239H0.442383L0.467659 50.0754V64.3736L0.442383 66.9251H5.28905L5.26377 64.3736V59.3844H8.74553L12.063 66.9251H17.5479V66.8682L13.3142 58.7592C15.5132 57.9445 17.213 56.2898 17.213 53.3342V53.3278ZM8.8024 55.9867H5.26377V50.9153H8.68866C10.5844 50.9153 12.3663 51.2374 12.3663 53.4668C12.3663 55.5572 10.5844 55.9867 8.8024 55.9867Z" fill="#FFF9EB"/>
<path d="M25.946 52.5952C21.7123 52.5952 18.4517 55.4688 18.4517 60.218C18.4517 64.9672 21.6554 67.3797 26.1671 67.3797C30.3187 67.3797 32.404 65.2072 33.1875 63.9378L29.7879 62.7694C29.2571 63.502 28.006 64.4809 26.2809 64.4809C24.2462 64.4809 22.7991 63.3694 22.6854 60.7358H33.4087C33.5224 56.6939 31.4056 52.6015 25.946 52.6015V52.5952ZM22.7991 58.3739C23.1593 56.2582 24.303 55.3361 25.9713 55.3361C27.9491 55.3361 28.9222 56.6687 28.9222 58.3739H22.7928H22.7991Z" fill="#FFF9EB"/>
<path d="M41.1493 62.1697H41.0924L37.914 53.0312H33.2632L38.5585 66.919H42.8428L48.0243 53.0312H44.2077L41.1493 62.1697Z" fill="#FFF9EB"/>
<path d="M53.7497 47.5239H49.2632V51.2943H53.7497V47.5239Z" fill="#FFF9EB"/>
<path d="M53.7748 53.0312H49.2314L49.263 55.5574V64.3991L49.2314 66.919H53.7748L53.7432 64.3991V55.5574L53.7748 53.0312Z" fill="#FFF9EB"/>
<path d="M63.2155 52.5952C58.9818 52.5952 55.7212 55.4688 55.7212 60.218C55.7212 64.9672 58.9249 67.3797 63.4367 67.3797C67.5882 67.3797 69.6735 65.2072 70.4571 63.9378L67.0575 62.7694C66.5267 63.502 65.2755 64.4809 63.5504 64.4809C61.5157 64.4809 60.0687 63.3694 59.9549 60.7358H70.6782C70.792 56.6939 68.6751 52.6015 63.2155 52.6015V52.5952ZM60.0687 58.3739C60.4288 56.2582 61.5726 55.3361 63.2471 55.3361C65.2249 55.3361 66.1981 56.6687 66.1981 58.3739H60.0687Z" fill="#FFF9EB"/>
<path d="M88.226 53.0312L86.0017 61.3298H85.9448L83.1897 53.0312H80.125L77.3952 61.3298H77.3383L75.0256 53.0312H70.7666L75.3036 66.919H78.7285L81.3193 59.1636H81.3762L83.9417 66.919H87.6699L92.1564 53.0312H88.226Z" fill="#FFF9EB"/>
<path d="M96.1373 62.5801H91.3159V66.9188H96.1373V62.5801Z" fill="#FFF9EB"/>
</svg>
